<svg width="173" height="40" viewBox="0 0 173 40" fill="none" xmlns="http://www.w3.org/2000/svg">
<path d="M0.151985 31V9.18182H8.50426C10.081 9.18182 11.3913 9.4304 12.4354 9.92756C13.4865 10.4176 14.2713 11.0888 14.7898 11.9411C15.3153 12.7933 15.5781 13.7592 15.5781 14.8388C15.5781 15.7266 15.4077 16.4865 15.0668 17.1186C14.7258 17.7436 14.2678 18.2514 13.6925 18.642C13.1172 19.0327 12.4744 19.3132 11.7642 19.4837V19.6967C12.5383 19.7394 13.2805 19.9773 13.9908 20.4105C14.7081 20.8367 15.294 21.4403 15.7486 22.2216C16.2031 23.0028 16.4304 23.9474 16.4304 25.0554C16.4304 26.1847 16.157 27.2003 15.6101 28.1023C15.0632 28.9972 14.2393 29.7038 13.1385 30.2223C12.0376 30.7408 10.6527 31 8.98366 31H0.151985ZM4.1044 27.6974H8.35511C9.78977 27.6974 10.8231 27.424 11.4553 26.8771C12.0945 26.3232 12.4141 25.6129 12.4141 24.7465C12.4141 24.1001 12.2543 23.5178 11.9347 22.9993C11.6151 22.4737 11.1605 22.0618 10.571 21.7635C9.98153 21.4581 9.27841 21.3054 8.46165 21.3054H4.1044V27.6974ZM4.1044 18.4609H8.0142C8.69602 18.4609 9.31037 18.3367 9.85724 18.0881C10.4041 17.8324 10.8338 17.4737 11.1463 17.0121C11.4659 16.5433 11.6257 15.9894 11.6257 15.3501C11.6257 14.505 11.3274 13.809 10.7308 13.2621C10.1413 12.7152 9.2642 12.4418 8.09943 12.4418H4.1044V18.4609Z" fill="#FF1654"/>
<path d="M19.6983 31V14.6364H23.5549V31H19.6983ZM21.6372 12.3139C21.0265 12.3139 20.5009 12.1115 20.0605 11.7067C19.6202 11.2947 19.4 10.8011 19.4 10.2259C19.4 9.64347 19.6202 9.14986 20.0605 8.74503C20.5009 8.3331 21.0265 8.12714 21.6372 8.12714C22.2551 8.12714 22.7807 8.3331 23.214 8.74503C23.6543 9.14986 23.8745 9.64347 23.8745 10.2259C23.8745 10.8011 23.6543 11.2947 23.214 11.7067C22.7807 12.1115 22.2551 12.3139 21.6372 12.3139Z" fill="#FF1654"/>
<path d="M31.0362 25.8651L31.0256 21.2095H31.6435L37.5241 14.6364H42.0305L34.7969 22.6903H33.9979L31.0362 25.8651ZM27.5206 31V9.18182H31.3771V31H27.5206ZM37.7905 31L32.4638 23.5533L35.0632 20.8367L42.4034 31H37.7905Z" fill="#FF1654"/>
<path d="M51.1712 31.3196C49.5305 31.3196 48.1136 30.9787 46.9205 30.2969C45.7344 29.608 44.8217 28.6349 44.1825 27.3778C43.5433 26.1136 43.2237 24.6257 43.2237 22.9141C43.2237 21.2308 43.5433 19.7536 44.1825 18.4823C44.8288 17.2038 45.7308 16.2095 46.8885 15.4993C48.0462 14.782 49.4062 14.4233 50.9687 14.4233C51.9773 14.4233 52.929 14.5867 53.8239 14.9134C54.7258 15.233 55.5213 15.7301 56.2102 16.4048C56.9062 17.0796 57.4531 17.9389 57.8508 18.983C58.2486 20.0199 58.4474 21.2557 58.4474 22.6903V23.8729H45.0348V21.2734H54.7507C54.7436 20.5348 54.5838 19.8778 54.2713 19.3026C53.9588 18.7202 53.522 18.2621 52.9609 17.9283C52.407 17.5945 51.7607 17.4276 51.022 17.4276C50.2337 17.4276 49.5412 17.6193 48.9446 18.0028C48.348 18.3793 47.8828 18.8764 47.549 19.4943C47.2223 20.1051 47.0554 20.7763 47.0483 21.5078V23.777C47.0483 24.7287 47.2223 25.5455 47.5703 26.2273C47.9183 26.902 48.4048 27.4205 49.0298 27.7827C49.6548 28.1378 50.3864 28.3153 51.2244 28.3153C51.7855 28.3153 52.2933 28.2372 52.7479 28.081C53.2024 27.9176 53.5966 27.6797 53.9304 27.3672C54.2642 27.0547 54.5163 26.6676 54.6868 26.206L58.2876 26.6108C58.0604 27.5625 57.6271 28.3935 56.9879 29.1037C56.3558 29.8068 55.5462 30.3537 54.5589 30.7443C53.5717 31.1278 52.4425 31.3196 51.1712 31.3196Z" fill="#FF1654"/>
<path d="M61.8805 31V9.18182H65.8329V18.4183H75.943V9.18182H79.9061V31H75.943V21.7315H65.8329V31H61.8805Z" fill="#FF1654"/>
<path d="M94.464 24.1179V14.6364H98.3205V31H94.5811V28.0916H94.4107C94.0414 29.0078 93.4341 29.7571 92.589 30.3395C91.7509 30.9219 90.7175 31.2131 89.4888 31.2131C88.4164 31.2131 87.4682 30.9751 86.6444 30.4993C85.8276 30.0163 85.1884 29.3168 84.7267 28.4006C84.2651 27.4773 84.0343 26.3622 84.0343 25.0554V14.6364H87.8908V24.4588C87.8908 25.4957 88.1749 26.3196 88.7431 26.9304C89.3113 27.5412 90.057 27.8466 90.9803 27.8466C91.5485 27.8466 92.0989 27.7081 92.6316 27.4311C93.1642 27.1541 93.601 26.7422 93.9419 26.1953C94.29 25.6413 94.464 24.9489 94.464 24.1179Z" fill="#FF1654"/>
<path d="M102.457 31V9.18182H106.313V17.3423H106.473C106.672 16.9446 106.952 16.522 107.315 16.0746C107.677 15.62 108.167 15.233 108.785 14.9134C109.403 14.5867 110.191 14.4233 111.15 14.4233C112.414 14.4233 113.554 14.7465 114.57 15.3928C115.592 16.032 116.402 16.9801 116.999 18.2372C117.602 19.4872 117.904 21.0213 117.904 22.8395C117.904 24.6364 117.609 26.1634 117.02 27.4205C116.43 28.6776 115.628 29.6364 114.612 30.2969C113.597 30.9574 112.446 31.2876 111.161 31.2876C110.223 31.2876 109.445 31.1314 108.827 30.8189C108.21 30.5064 107.712 30.13 107.336 29.6896C106.967 29.2422 106.679 28.8196 106.473 28.4219H106.249V31H102.457ZM106.239 22.8182C106.239 23.8764 106.388 24.8033 106.686 25.5987C106.991 26.3942 107.428 27.0156 107.996 27.4631C108.572 27.9034 109.268 28.1236 110.085 28.1236C110.937 28.1236 111.651 27.8963 112.226 27.4418C112.801 26.9801 113.234 26.3516 113.526 25.5561C113.824 24.7536 113.973 23.8409 113.973 22.8182C113.973 21.8026 113.827 20.9006 113.536 20.1122C113.245 19.3239 112.812 18.706 112.237 18.2585C111.661 17.8111 110.944 17.5874 110.085 17.5874C109.261 17.5874 108.561 17.804 107.986 18.2372C107.411 18.6705 106.974 19.2777 106.675 20.059C106.384 20.8402 106.239 21.7599 106.239 22.8182Z" fill="#FF1654"/>
<g clip-path="url(#clip0_73_2)">
<path d="M141.083 33.3334C138.833 33.3334 136.924 32.5417 135.354 30.9584C133.785 29.375 133 27.4584 133 25.2084C133 22.9584 133.792 21.0486 135.377 19.4792C136.961 17.9097 138.877 17.125 141.125 17.125C143.097 17.125 144.826 17.757 146.312 19.0209C147.799 20.2847 148.694 21.8889 149 23.8334H151.125L147.708 14.1667H144.667V11.6667H152.5V14.1667H150.333L151.417 17.125H160.667L157.708 9.16669H153.333V6.66669H157.458C158.125 6.66669 158.688 6.81946 159.146 7.12502C159.604 7.43058 159.944 7.88891 160.167 8.50002L163.333 17.125H164.917C167.153 17.125 169.059 17.906 170.636 19.4681C172.212 21.0302 173 22.9193 173 25.1356C173 27.3785 172.219 29.3056 170.656 30.9167C169.093 32.5278 167.18 33.3334 164.917 33.3334C162.928 33.3334 161.18 32.6667 159.675 31.3334C158.169 30 157.25 28.3334 156.917 26.3334H149C148.694 28.3334 147.799 30 146.312 31.3334C144.826 32.6667 143.083 33.3334 141.083 33.3334ZM141.083 30.8334C142.417 30.8334 143.576 30.4028 144.562 29.5417C145.549 28.6806 146.208 27.6111 146.542 26.3334H141.583V23.8334H146.542C146.208 22.5834 145.542 21.5695 144.542 20.7917C143.542 20.0139 142.403 19.625 141.125 19.625C139.569 19.625 138.243 20.1667 137.146 21.25C136.049 22.3334 135.5 23.6528 135.5 25.2084C135.5 26.7709 136.042 28.099 137.125 29.1927C138.208 30.2865 139.528 30.8334 141.083 30.8334ZM153.792 23.8334H156.958C157.069 23.1945 157.285 22.4861 157.604 21.7084C157.924 20.9306 158.361 20.2361 158.917 19.625H152.292L153.792 23.8334ZM164.917 30.8334C166.472 30.8334 167.792 30.2865 168.875 29.1927C169.958 28.099 170.5 26.7709 170.5 25.2084C170.5 23.6528 169.958 22.3334 168.875 21.25C167.792 20.1667 166.472 19.625 164.917 19.625H164.25L165.875 24.3334L163.542 25.125L161.75 20.4584C160.944 20.9306 160.34 21.5972 159.938 22.4584C159.535 23.3195 159.333 24.2361 159.333 25.2084C159.333 26.7709 159.875 28.099 160.958 29.1927C162.042 30.2865 163.361 30.8334 164.917 30.8334Z" fill="#FF1654"/>
</g>
<defs>
<clipPath id="clip0_73_2">
<rect width="40" height="40" fill="white" transform="translate(133)"/>
</clipPath>
</defs>
</svg>
